<svg width="163" height="8" viewBox="0 0 163 8" fill="none" xmlns="http://www.w3.org/2000/svg">
<path d="M1.00049 6.74414L19.2187 1.25509C20.3257 0.921571 21.5054 0.914959 22.616 1.23605L39.9666 6.25223C41.0772 6.57332 42.2569 6.56671 43.3639 6.23319L59.8511 1.26566C60.98 0.925532 62.184 0.925532 63.3129 1.26566L79.765 6.22262C80.8939 6.56275 82.098 6.56275 83.2269 6.22262L99.679 1.26566C100.808 0.925532 102.012 0.925532 103.141 1.26566L119.593 6.22262C120.722 6.56275 121.926 6.56275 123.055 6.22262L139.507 1.26566C140.636 0.925532 141.84 0.925532 142.969 1.26566L161.152 6.74414" stroke="#D0D0D0" stroke-width="2" stroke-linecap="round"/>
</svg>
